HIERARCHY
ROOT root
{
	OFFSET	0	13.1	24.9
	CHANNELS 6  Xposition Yposition Zposition Xrotation Yrotation Zrotation
	JOINT spine_1
	{
		OFFSET	0	9.99999	0
		CHANNELS 3  Xrotation Yrotation Zrotation
		JOINT spine_2
		{
			OFFSET	0	112	-10
			CHANNELS 3  Xrotation Yrotation Zrotation
			JOINT spine_3
			{
				OFFSET	0	206.5	19.3
				CHANNELS 3  Xrotation Yrotation Zrotation
				JOINT spine_4
				{
					OFFSET	0	110.4	14.6
					CHANNELS 3  Xrotation Yrotation Zrotation
					JOINT neck_1
					{
						OFFSET	0	71.8	-50.3
						CHANNELS 3  Xrotation Yrotation Zrotation
						JOINT neck_2
						{
							OFFSET	0	86.2	-25.8
							CHANNELS 3  Xrotation Yrotation Zrotation
							JOINT head_ee
							{
								OFFSET	0	179.8	-8.7
								CHANNELS 3  Xrotation Yrotation Zrotation
								End Site
								{
									OFFSET	1	0	0
								}
							}
						}
					}
					JOINT left_clavicle
					{
						OFFSET	-43.2	22.4	-70.8
						CHANNELS 3  Xrotation Yrotation Zrotation
						JOINT left_shoulder
						{
							OFFSET	-93.9	-5.79999	48.7
							CHANNELS 3  Xrotation Yrotation Zrotation
							JOINT left_elbow
							{
								OFFSET	-291.4	-30.8	15.2
								CHANNELS 3  Xrotation Yrotation Zrotation
								JOINT left_lowarm_twist
								{
									OFFSET	-110.7	-3.89999	13.6
									CHANNELS 3  Xrotation Yrotation Zrotation
									JOINT left_hand
									{
										OFFSET	-110.7	-3.89999	13.6
										CHANNELS 3  Xrotation Yrotation Zrotation
										JOINT left_ee
										{
											OFFSET	-80.8	-5.10001	12.1
											CHANNELS 3  Xrotation Yrotation Zrotation
											End Site
											{
												OFFSET	1	0	0
											}
										}
									}
								}
							}
						}
					}
					JOINT right_clavicle
					{
						OFFSET	43.2	22.4	-70.8
						CHANNELS 3  Xrotation Yrotation Zrotation
						JOINT right_shoulder
						{
							OFFSET	93.9	-5.79999	48.7
							CHANNELS 3  Xrotation Yrotation Zrotation
							JOINT right_elbow
							{
								OFFSET	291.4	-30.8	15.2
								CHANNELS 3  Xrotation Yrotation Zrotation
								JOINT right_lowarm_twist
								{
									OFFSET	110.7	-3.89999	13.6
									CHANNELS 3  Xrotation Yrotation Zrotation
									JOINT right_hand
									{
										OFFSET	110.7	-3.89999	13.6
										CHANNELS 3  Xrotation Yrotation Zrotation
										JOINT right_ee
										{
											OFFSET	80.8	-5.10001	12.1
											CHANNELS 3  Xrotation Yrotation Zrotation
											End Site
											{
												OFFSET	1	0	0
											}
										}
									}
								}
							}
						}
					}
				}
			}
		}
	}
	JOINT left_hip
	{
		OFFSET	-82.8	-127.5	0.300001
		CHANNELS 3  Xrotation Yrotation Zrotation
		JOINT left_knee
		{
			OFFSET	-28.2	-396.7	2.2
			CHANNELS 3  Xrotation Yrotation Zrotation
			JOINT left_ankle
			{
				OFFSET	-11.7	-411.3	35.4
				CHANNELS 3  Xrotation Yrotation Zrotation
				JOINT left_toes
				{
					OFFSET	0	-60	-88.6
					CHANNELS 3  Xrotation Yrotation Zrotation
					JOINT left_foot_ee
					{
						OFFSET	-22.5	-16.5	-42.2
						CHANNELS 3  Xrotation Yrotation Zrotation
						End Site
						{
							OFFSET	1	0	0
						}
					}
				}
			}
		}
	}
	JOINT right_hip
	{
		OFFSET	82.8	-127.5	0.300001
		CHANNELS 3  Xrotation Yrotation Zrotation
		JOINT right_knee
		{
			OFFSET	28.2	-396.7	2.2
			CHANNELS 3  Xrotation Yrotation Zrotation
			JOINT right_ankle
			{
				OFFSET	11.7	-411.3	35.4
				CHANNELS 3  Xrotation Yrotation Zrotation
				JOINT right_toes
				{
					OFFSET	0	-60	-88.6
					CHANNELS 3  Xrotation Yrotation Zrotation
					JOINT right_foot_ee
					{
						OFFSET	22.5	-16.5	-42.2
						CHANNELS 3  Xrotation Yrotation Zrotation
						End Site
						{
							OFFSET	1	0	0
						}
					}
				}
			}
		}
	}
}
MOTION
Frames: 10
Frame Time: 0.02
3177.02 653.055 -1669.29 53.1937152615 82.4996423711 -54.944113621 -3.84289 0.670027 0.776064 -3.84277 0.619288 0.817124 -3.83319 0.3707 0.955917 -3.8341 0.517012 0.885383 -6.84939 4.98473 -3.81571 -6.79253 12.0125 -2.82863 -0.0 0.0 -0.0 5.51998 17.2339 10.6077 -20.0174 -14.5287 66.429 0.283827 -8.00349 0.0198559 61.144 -1.87683 -7.21244 -6.22275 29.3484 -22.567 -0.0 0.0 -0.0 10.3202 25.1669 -19.6688 21.1556 4.75574 -58.3721 4.5337 65.9767 -2.9438 76.5718 3.44926 8.40483 -5.23595 -15.7847 26.9258 0.0 0.0 0.0 34.2052 -4.68109 -0.504974 -22.7876 0.252124 3.46485 7.8134 25.4422 -1.17244 -4.37923 0.0 0.0 -0.0 0.0 -0.0 -21.7684 28.2349 -3.8501 -26.7947 -0.153429 -4.07175 41.9429 -8.78475 5.03434 2.68201 -0.0 -0.0 0.0 0.0 0.0 
3132.00384198 651.493 -1660.15853699 45.505594911 81.9865452931 -46.9469181553 -3.68645 0.441544 0.943703 -3.68603 0.380602 0.969884 -3.67862 0.10197 1.03688 -3.68002 0.264438 1.00777 -6.81441 5.35558 -3.93071 -6.75263 12.7837 -2.87418 -0.0 0.0 -0.0 5.5589 18.0529 10.6409 -18.0874 -14.1084 67.0008 0.410239 -11.4874 0.0412636 65.2544 -2.26338 -7.57067 -6.85898 29.6465 -26.1363 -0.0 0.0 -0.0 10.2656 24.9535 -19.5679 15.4884 10.3592 -57.7567 4.18352 64.2218 -2.62613 74.1463 3.18158 8.24597 -3.82981 -16.7994 16.8307 0.0 0.0 0.0 34.8168 -4.27507 -0.504958 -26.6998 0.156258 4.05745 10.475 27.6964 -1.58011 -3.60503 0.0 0.0 -0.0 0.0 -0.0 -26.3784 32.0074 -1.95821 -25.0746 -0.200998 -3.81206 41.324 -2.83004 4.97335 5.87517 -0.0 -0.0 0.0 0.0 0.0 
3110.18248801 654.286 -1659.04622174 35.3240034943 81.1317907954 -36.9562499702 -3.54457 0.40344 0.963265 -3.54411 0.34133 0.986982 -3.53728 0.0620907 1.04248 -3.53872 0.225944 1.0196 -6.16522 6.13175 -2.41581 -6.12281 13.1145 -1.27095 -0.0 0.0 -0.0 5.58328 18.2797 10.6706 -16.6719 -14.3076 67.2291 0.446996 -12.4857 0.0488977 66.6798 -2.40332 -7.68835 -7.14115 29.7329 -27.802 -0.0 0.0 -0.0 10.7321 26.0423 -20.5024 13.012 11.9737 -56.5144 3.90063 62.6197 -2.37312 71.5151 2.89908 8.06105 -3.42191 -17.464 13.8453 0.0 0.0 0.0 34.7322 -4.12426 -0.440646 -31.9091 -0.0337784 4.83405 15.0166 27.8881 -2.23399 -2.51613 0.0 0.0 -0.0 0.0 -0.0 -28.9641 34.7076 0.0794926 -20.6145 -0.287827 -3.13333 40.3383 -1.30966 4.8966 9.89374 -0.0 -0.0 0.0 0.0 0.0 
3110.20419041 654.286 -1658.90560832 35.7757874426 81.2298794862 -37.4134389718 -3.54457 0.40344 0.963265 -3.54411 0.34133 0.986982 -3.53728 0.0620907 1.04248 -3.53872 0.225944 1.0196 -6.16522 6.13175 -2.41581 -6.12281 13.1145 -1.27095 -0.0 0.0 -0.0 5.58328 18.2797 10.6706 -16.6719 -14.3076 67.2291 0.446996 -12.4857 0.0488977 66.6798 -2.40332 -7.68835 -7.14115 29.7329 -27.802 -0.0 0.0 -0.0 10.7321 26.0423 -20.5024 13.012 11.9737 -56.5144 3.90063 62.6197 -2.37312 71.5151 2.89908 8.06105 -3.42191 -17.464 13.8453 0.0 0.0 0.0 34.7322 -4.12426 -0.440646 -31.9091 -0.0337784 4.83405 15.0166 27.8881 -2.23399 -2.51613 0.0 0.0 -0.0 0.0 -0.0 -28.9641 34.7076 0.0794926 -20.6145 -0.287827 -3.13333 40.3383 -1.30966 4.8966 9.89374 -0.0 -0.0 0.0 0.0 0.0 
3029.81797833 662.423 -1646.79740249 38.0085505037 80.6187523982 -37.6348648305 -3.68148 -0.0479925 0.539816 -3.68132 -0.0822447 0.535668 -3.68192 -0.225121 0.492977 -3.68223 -0.144441 0.522343 -3.68036 7.16633 -0.441028 -3.61339 13.4191 0.647306 -0.0 0.0 -0.0 6.47133 18.0553 12.0726 -13.1904 -16.8231 66.8326 0.540094 -14.9787 0.0710028 70.4493 -2.78713 -7.9825 -7.54586 29.7475 -30.362 -0.0 0.0 -0.0 11.7504 26.3552 -22.7719 7.05974 11.1485 -55.2726 2.79631 54.164 -1.43004 63.9668 2.13952 7.46143 -2.39783 -16.4089 8.03654 0.0 0.0 0.0 31.7407 -2.84756 0.472252 -38.498 -0.373986 5.78686 23.7649 27.2771 -3.40073 -2.63185 0.0 0.0 -0.0 0.0 -0.0 -31.5779 37.5156 -1.18582 -19.7672 -0.298336 -3.00375 36.7934 -1.75766 4.57823 18.1513 -0.0 -0.0 0.0 0.0 0.0 
3004.90310516 669.678 -1644.9782666 35.5756504765 80.4945967567 -35.2016758291 -3.67639 0.0243511 0.471538 -3.67627 -0.00570311 0.472131 -3.67615 -0.134112 0.452719 -3.67643 -0.0609315 0.468218 -2.81137 7.37535 1.11223 -2.74517 12.5245 2.20542 -0.0 0.0 -0.0 6.75254 17.8503 12.5307 -11.743 -18.3989 66.5131 0.549308 -15.2224 0.0734032 68.8101 -2.61784 -7.85767 -7.86958 29.179 -33.1203 -0.0 0.0 -0.0 12.1111 24.2513 -23.8226 4.75777 10.8329 -54.9068 2.53442 51.454 -1.22136 61.2463 1.88613 7.22169 -2.19806 -18.2615 5.8752 0.0 0.0 0.0 31.0392 -3.7183 1.03093 -40.451 -0.495707 6.06129 25.1552 27.2477 -3.57644 -4.42017 0.0 0.0 -0.0 0.0 -0.0 -30.0507 36.9434 -0.53418 -22.2926 -0.261364 -3.38945 39.7371 1.68587 4.86779 21.9465 -0.0 -0.0 0.0 0.0 0.0 
3004.81962101 669.678 -1645.57681073 34.8952060324 80.3318895203 -34.5115950148 -3.67639 0.0243511 0.471538 -3.67627 -0.00570311 0.472131 -3.67615 -0.134112 0.452719 -3.67643 -0.0609315 0.468218 -2.81137 7.37535 1.11223 -2.74517 12.5245 2.20542 -0.0 0.0 -0.0 6.75254 17.8503 12.5307 -11.743 -18.3989 66.5131 0.549308 -15.2224 0.0734032 68.8101 -2.61784 -7.85767 -7.86958 29.179 -33.1203 -0.0 0.0 -0.0 12.1111 24.2513 -23.8226 4.75777 10.8329 -54.9068 2.53442 51.454 -1.22136 61.2463 1.88613 7.22169 -2.19806 -18.2615 5.8752 0.0 0.0 0.0 31.0392 -3.7183 1.03093 -40.451 -0.495707 6.06129 25.1552 27.2477 -3.57644 -4.42017 0.0 0.0 -0.0 0.0 -0.0 -30.0507 36.9434 -0.53418 -22.2926 -0.261364 -3.38945 39.7371 1.68587 4.86779 21.9465 -0.0 -0.0 0.0 0.0 0.0 
3004.65741728 669.678 -1646.78609037 33.5897070441 79.9994086326 -33.186633807 -3.67639 0.0243511 0.471538 -3.67627 -0.00570311 0.472131 -3.67615 -0.134112 0.452719 -3.67643 -0.0609315 0.468218 -2.81137 7.37535 1.11223 -2.74517 12.5245 2.20542 -0.0 0.0 -0.0 6.75254 17.8503 12.5307 -11.743 -18.3989 66.5131 0.549308 -15.2224 0.0734032 68.8101 -2.61784 -7.85767 -7.86958 29.179 -33.1203 -0.0 0.0 -0.0 12.1111 24.2513 -23.8226 4.75777 10.8329 -54.9068 2.53442 51.454 -1.22136 61.2463 1.88613 7.22169 -2.19806 -18.2615 5.8752 0.0 0.0 0.0 31.0392 -3.7183 1.03093 -40.451 -0.495707 6.06129 25.1552 27.2477 -3.57644 -4.42017 0.0 0.0 -0.0 0.0 -0.0 -30.0507 36.9434 -0.53418 -22.2926 -0.261364 -3.38945 39.7371 1.68587 4.86779 21.9465 -0.0 -0.0 0.0 0.0 0.0 
2950.2043312 685.988 -1644.81538726 35.4873501321 80.3027462635 -35.3064083943 -3.66076 -0.0966805 0.107129 -3.66076 -0.103301 0.10076 -3.66095 -0.126826 0.0688399 -3.66094 -0.114362 0.0880058 -2.83444 7.19835 3.16784 -2.77312 10.5981 4.32224 -0.0 0.0 -0.0 7.57696 18.2079 13.8142 -7.6495 -18.6896 66.7753 0.658862 -18.0758 0.104801 70.2985 -2.7714 -7.97121 -8.41717 29.3804 -36.697 -0.0 0.0 -0.0 12.3961 20.9593 -24.774 1.02327 3.43459 -56.1674 2.34143 49.2263 -1.07276 55.5674 1.39558 6.68432 -1.54694 -18.8529 1.66584 0.0 0.0 0.0 25.3 -4.24658 0.971801 -40.007 -0.467211 5.99926 32.1984 24.7513 -4.35045 -8.50825 0.0 0.0 -0.0 0.0 -0.0 -25.6487 33.8707 -1.39527 -31.3525 0.0101107 -4.75193 39.5026 2.86593 4.86016 27.4259 -0.0 -0.0 0.0 0.0 0.0 
2914.60735668 690.281 -1642.00398836 35.4346014398 78.6610853728 -34.902840809 -3.95377 -0.193566 -0.0992944 -3.95378 -0.186856 -0.11141 -3.95342 -0.148671 -0.158822 -3.95341 -0.171888 -0.133349 -0.134536 6.61685 3.55182 -0.0651928 8.90469 4.52014 -0.0 0.0 -0.0 7.81877 18.0306 14.2179 -5.94463 -19.2318 67.1848 0.700315 -19.1325 0.118026 70.188 -2.7599 -7.96292 -8.45354 29.1626 -37.2266 -0.0 0.0 -0.0 11.9727 19.8167 -23.8842 -1.32745 1.58188 -57.423 2.21767 47.6828 -0.980122 53.747 1.24992 6.50217 -0.651458 -17.7489 -3.24679 0.0 0.0 0.0 21.2561 -4.85961 1.37606 -37.8426 -0.335251 5.69388 37.0933 24.2903 -4.85896 -9.59974 0.0 0.0 -0.0 0.0 -0.0 -23.1973 32.9688 -3.08581 -37.9526 0.341678 -5.70952 36.2742 2.10557 4.55948 33.6646 -0.0 -0.0 0.0 0.0 0.0 
